If you must download and send. Keep active torrents for other! Thanks
Se si scarica devi inviare. Mantenere torrents attivi per altri! Grazie
Daca descarci trebuie sa trimiti. Pastreaza torrentul activ si pentru alti! Mersi
---------------------------------------------------------------------------------

THANKS TO: zuzuzuzuzu

Looney Tunes Golden Collection. Vol. 3 - Disc 3 [multi.language] H264_MarGelaTu.mp4
      Format : MPEG-4
      Format profile : Base Media / Version 2
      Codec ID : mp42
      File size : 923 MiB
      Duration : 1h 36mn
      Overall bit rate : 1 335 Kbps
      
   Video #1
      ID : 1
      Format : AVC
      Format/Info : Advanced Video Codec
      Format profile : High@L3.0
      Format settings, CABAC : Yes
      Format settings, ReFrames : 3 frames
      Codec ID : avc1
      Codec ID/Info : Advanced Video Coding
      Duration : 1h 36mn
      Bit rate mode : Variable
      Bit rate : 1 000 Kbps
      Width : 720 pixels
      Height : 544 pixels
      Display aspect ratio : 4:3
      Frame rate mode : Constant
      Frame rate : 25.000 fps
      Resolution : 24 bits
      Colorimetry : 4:2:0
      Scan type : Progressive
      Bits/(Pixel*Frame) : 0.102
      Stream size : 691 MiB (75%)
      Writing library : x264 core 79
     
   Audio #2
      ID : 2
      Format : AAC
      Format/Info : Advanced Audio Codec
      Format version : Version 4
      Format profile : LC
      Format settings, SBR : No
      Format settings, PS : Yes
      Codec ID : 40
      Duration : 1h 36mn
      Bit rate mode : Variable
      Bit rate : 78.3 Kbps
      Maximum bit rate : 102 Kbps
      Channel(s) : 2 channels
      Channel positions : Front: L R
      Sampling rate : 48.0 KHz
      Resolution : 16 bits
      Stream size : 54.1 MiB (6%)
      Language : English
     
   Audio #3
      ID : 3
      Format : AAC
      Format/Info : Advanced Audio Codec
      Format version : Version 4
      Format profile : LC
      Format settings, SBR : No
      Format settings, PS : Yes
      Codec ID : 40
      Duration : 1h 36mn
      Bit rate mode : Variable
      Bit rate : 82.2 Kbps
      Maximum bit rate : 118 Kbps
      Channel(s) : 2 channels
      Channel positions : Front: L R
      Sampling rate : 48.0 KHz
      Resolution : 16 bits
      Stream size : 56.8 MiB (6%)
      Language : Italian
      
   Audio #4
      ID : 4
      Format : AAC
      Format/Info : Advanced Audio Codec
      Format version : Version 4
      Format profile : LC
      Format settings, SBR : No
      Format settings, PS : Yes
      Codec ID : 40
      Duration : 1h 36mn
      Bit rate mode : Variable
      Bit rate : 82.7 Kbps
      Maximum bit rate : 117 Kbps
      Channel(s) : 2 channels
      Channel positions : Front: L R
      Sampling rate : 48.0 KHz
      Resolution : 16 bits
      Stream size : 57.1 MiB (6%)
      Language : Polish
      
   Audio #5
      ID : 5
      Format : AAC
      Format/Info : Advanced Audio Codec
      Format version : Version 4
      Format profile : LC
      Format settings, SBR : No
      Format settings, PS : Yes
      Codec ID : 40
      Duration : 1h 36mn
      Bit rate mode : Variable
      Bit rate : 82.7 Kbps
      Maximum bit rate : 118 Kbps
      Channel(s) : 2 channels
      Channel positions : Front: L R
      Sampling rate : 48.0 KHz
      Resolution : 16 bits
      Stream size : 57.1 MiB (6%)
      Language : Romanian